HIERARCHY
ROOT Hips
{
	OFFSET -0.001795 -0.223333 0.028219
	CHANNELS 6 Xposition Yposition Zposition Zrotation Yrotation Xrotation 
	JOINT LeftUpLeg
	{
		OFFSET 0.069520 -0.091406 -0.006815
		CHANNELS 3 Zrotation Yrotation Xrotation
		JOINT LeftLeg
		{
			OFFSET 0.034277 -0.375199 -0.004496
			CHANNELS 3 Zrotation Yrotation Xrotation
			JOINT LeftFoot
			{
				OFFSET -0.013596 -0.397961 -0.043693
				CHANNELS 3 Zrotation Yrotation Xrotation
				JOINT LeftToe
				{
					OFFSET 0.026358 -0.055791 0.119288
					CHANNELS 3 Zrotation Yrotation Xrotation
					End Site
					{
						OFFSET 0.000000 0.000000 0.000000
					}
				}
			}
		}
	}
	JOINT RightUpLeg
	{
		OFFSET -0.067670 -0.090522 -0.004320
		CHANNELS 3 Zrotation Yrotation Xrotation
		JOINT RightLeg
		{
			OFFSET -0.038290 -0.382569 -0.008850
			CHANNELS 3 Zrotation Yrotation Xrotation
			JOINT RightFoot
			{
				OFFSET 0.015774 -0.398415 -0.042312
				CHANNELS 3 Zrotation Yrotation Xrotation
				JOINT RightToe
				{
					OFFSET -0.025372 -0.048144 0.123348
					CHANNELS 3 Zrotation Yrotation Xrotation
					End Site
					{
						OFFSET 0.000000 0.000000 0.000000
					}
				}
			}
		}
	}
	JOINT Spine
	{
		OFFSET -0.002533 0.108963 -0.026696
		CHANNELS 3 Zrotation Yrotation Xrotation
		JOINT Spine1
		{
			OFFSET 0.005487 0.135180 0.001092
			CHANNELS 3 Zrotation Yrotation Xrotation
			JOINT Spine2
			{
				OFFSET 0.001457 0.052922 0.025425
				CHANNELS 3 Zrotation Yrotation Xrotation
				JOINT Neck
				{
					OFFSET -0.002778 0.213870 -0.042857
					CHANNELS 3 Zrotation Yrotation Xrotation
					JOINT Head
					{
						OFFSET 0.005152 0.064970 0.051349
						CHANNELS 3 Zrotation Yrotation Xrotation
						End Site
						{
							OFFSET 0.000000 0.000000 0.000000
						}
					}
				}
				JOINT LeftShoulder
				{
					OFFSET 0.078845 0.121749 -0.034090
					CHANNELS 3 Zrotation Yrotation Xrotation
					JOINT LeftArm
					{
						OFFSET 0.090977 0.030469 -0.008868
						CHANNELS 3 Zrotation Yrotation Xrotation
						JOINT LeftForeArm
						{
							OFFSET 0.259612 -0.012772 -0.027456
							CHANNELS 3 Zrotation Yrotation Xrotation
							JOINT LeftHand
							{
								OFFSET 0.249234 0.008986 -0.001171
								CHANNELS 3 Zrotation Yrotation Xrotation
								End Site
								{
									OFFSET 0.000000 0.000000 0.000000
								}
							}
						}
					}
				}
				JOINT RightShoulder
				{
					OFFSET -0.081759 0.118833 -0.038615
					CHANNELS 3 Zrotation Yrotation Xrotation
					JOINT RightArm
					{
						OFFSET -0.096012 0.032551 -0.009143
						CHANNELS 3 Zrotation Yrotation Xrotation
						JOINT RightForeArm
						{
							OFFSET -0.253742 -0.013329 -0.021401
							CHANNELS 3 Zrotation Yrotation Xrotation
							JOINT RightHand
							{
								OFFSET -0.255298 0.007772 -0.005559
								CHANNELS 3 Zrotation Yrotation Xrotation
								End Site
								{
									OFFSET 0.000000 0.000000 0.000000
								}
							}
						}
					}
				}
			}
		}
	}
}
MOTION
Frames: 12
Frame Time: 0.050000
0.000000 0.945449 0.000000 -4.098064 5.489268 4.696240 7.141794 -0.299542 -1.468727 -4.512657 0.403091 -3.542431 11.077649 22.090170 11.561401 0.000000 0.000000 0.000000 -1.043480 0.897661 -9.680729 3.323170 -0.377657 1.783217 -2.550319 -8.917690 11.017407 0.000000 0.000000 0.000000 2.749336 -0.920947 11.807054 -7.662973 2.547647 -22.453744 -6.342921 0.823130 26.500081 6.816669 -2.059666 -23.367016 0.000000 0.000000 0.000000 -15.520087 -12.760998 4.685149 -43.336846 -19.623516 -0.228834 -0.905393 -23.805362 1.103027 0.000000 0.000000 0.000000 23.414849 -2.899410 -1.799689 58.695840 15.183459 -0.861980 17.935062 31.653255 7.033531 0.000000 0.000000 0.000000 
0.002344 0.944826 0.001572 -4.224919 3.538340 5.219864 6.783355 -0.265934 -1.421410 -3.336117 0.349356 -4.497563 13.364296 25.229837 13.648078 0.000000 0.000000 0.000000 -1.944831 0.937582 -10.680050 4.057022 -0.453695 2.453741 -1.691366 -7.628902 11.612555 0.000000 0.000000 0.000000 2.807812 -0.934916 12.120804 -8.854435 2.815868 -22.275497 -7.060179 2.174631 24.881011 5.422960 -1.050322 -23.798981 0.000000 0.000000 0.000000 -15.196739 -11.342389 3.901684 -41.897296 -19.020506 -0.352102 -1.705052 -25.218218 1.321013 0.000000 0.000000 0.000000 23.712103 -3.620252 -2.276244 60.497325 13.645136 -1.370203 18.742708 32.540517 7.530085 0.000000 0.000000 0.000000 
0.004427 0.944432 0.002064 -4.622126 4.552542 5.114810 7.405347 -0.290027 -1.121188 -4.399193 0.394856 -5.156542 14.146229 26.177254 15.107762 0.000000 0.000000 0.000000 -1.596394 0.915088 -10.194644 4.065141 -0.467143 1.281677 -0.944516 -6.410145 13.075410 0.000000 0.000000 0.000000 3.194519 -1.027763 12.424041 -9.072258 2.864669 -22.456481 -7.340650 1.222219 24.669538 4.754942 -0.828426 -22.681076 0.000000 0.000000 0.000000 -15.397324 -11.839684 4.199385 -41.227244 -19.066690 -0.312333 -0.149388 -24.828200 0.965120 0.000000 0.000000 0.000000 23.809186 -4.257814 -2.776735 61.155985 12.837382 -1.714340 17.756971 32.529041 7.226097 0.000000 0.000000 0.000000 
0.005852 0.944303 0.002028 -5.246220 3.868221 5.050743 7.280664 -0.281021 -1.419567 -3.583003 0.360394 -4.144295 15.476747 27.966169 14.717058 0.000000 0.000000 0.000000 -1.625498 0.957529 -10.660225 4.793272 -0.554387 1.632261 -0.579987 -5.886678 13.301734 0.000000 0.000000 0.000000 3.122637 -1.082921 13.309454 -9.387271 2.891040 -23.078299 -8.326370 2.170802 24.676670 4.636637 -0.704624 -22.209684 0.000000 0.000000 0.000000 -14.353001 -12.306488 4.296468 -39.868836 -19.522235 -0.182202 0.120996 -25.089332 0.873187 0.000000 0.000000 0.000000 23.092628 -4.825843 -2.916431 62.051746 12.669147 -1.722124 19.248191 34.025455 8.178890 0.000000 0.000000 0.000000 
0.006684 0.944572 0.001091 -5.789468 4.366545 4.796777 8.067042 -0.311685 -1.705568 -4.430634 0.410510 -3.525424 15.346395 27.831520 14.365076 0.000000 0.000000 0.000000 -1.226415 0.997601 -10.851704 4.808811 -0.565011 1.856210 -0.744911 -6.287829 13.979303 0.000000 0.000000 0.000000 2.271788 -1.035857 14.181771 -8.811555 2.763118 -23.059251 -8.690649 1.702394 24.409742 4.630812 -0.739044 -22.018789 0.000000 0.000000 0.000000 -13.702601 -12.616520 4.453324 -39.351216 -20.701531 0.183485 1.210108 -24.412889 0.616085 0.000000 0.000000 0.000000 22.408401 -5.055997 -3.062700 62.962535 11.964202 -1.966378 19.756939 34.429226 8.443775 0.000000 0.000000 0.000000 
0.007323 0.945449 -0.000490 -6.347591 4.092892 4.752093 8.656913 -0.322540 -1.981782 -4.638926 0.430054 -3.196324 15.704039 28.263215 14.772797 0.000000 0.000000 0.000000 -0.632061 1.069383 -11.157220 4.621538 -0.536366 1.830443 0.087484 -5.017642 14.800106 0.000000 0.000000 0.000000 1.665329 -0.992598 14.890163 -8.860045 2.713965 -23.950027 -8.983545 1.684585 24.911459 4.723359 -0.835374 -21.980418 0.000000 0.000000 0.000000 -12.450841 -13.032914 4.686395 -38.452165 -21.375878 0.286048 1.680433 -24.540606 0.516600 0.000000 0.000000 0.000000 22.120830 -5.163690 -3.155738 63.160376 11.439123 -2.267757 21.435030 34.658575 9.057366 0.000000 0.000000 0.000000 
0.007984 0.946194 -0.002141 -6.851716 3.714507 4.685579 9.237089 -0.327425 -2.254503 -5.121192 0.470332 -2.968578 16.381798 29.044344 15.609388 0.000000 0.000000 0.000000 -0.096874 1.168601 -11.767431 4.567066 -0.526154 2.317128 0.534159 -4.361066 15.131285 0.000000 0.000000 0.000000 1.021138 -0.926246 15.492730 -8.390819 2.634721 -23.426029 -9.413159 1.190149 24.041548 4.673593 -0.949796 -21.445040 0.000000 0.000000 0.000000 -12.410975 -12.858713 4.703708 -37.755684 -21.834190 0.441775 2.602526 -23.792110 0.327872 0.000000 0.000000 0.000000 21.855826 -4.698762 -3.078450 63.419040 11.168195 -2.277926 21.580922 34.896548 9.053885 0.000000 0.000000 0.000000 
0.008686 0.946846 -0.003357 -7.234402 3.075909 4.650140 9.367613 -0.315864 -2.565584 -5.090019 0.485494 -2.181266 16.864256 29.700692 15.448248 0.000000 0.000000 0.000000 0.444075 1.254863 -12.170472 4.540695 -0.515703 2.654333 0.901245 -3.890387 15.416604 0.000000 0.000000 0.000000 0.442188 -0.859867 16.139571 -8.218588 2.579149 -23.566381 -9.559518 0.908973 23.956472 4.661685 -1.126121 -20.736763 0.000000 0.000000 0.000000 -12.701087 -13.460223 5.123020 -36.424868 -22.033604 0.402859 3.429508 -23.094687 0.167467 0.000000 0.000000 0.000000 21.780439 -4.429690 -3.107619 63.660406 10.975705 -2.364560 22.548800 34.732126 9.235813 0.000000 0.000000 0.000000 
0.009285 0.947240 -0.004176 -7.557830 2.721754 4.574131 9.607255 -0.308670 -2.553790 -5.254474 0.504698 -2.057533 17.429981 30.344136 15.988906 0.000000 0.000000 0.000000 0.848303 1.318109 -12.443508 4.611393 -0.521909 2.923663 1.179754 -3.511572 15.618455 0.000000 0.000000 0.000000 -0.128246 -0.790951 16.741397 -7.894087 2.502045 -23.520619 -9.851009 0.662438 23.730227 4.961717 -1.452837 -20.113955 0.000000 0.000000 0.000000 -12.648455 -13.603896 5.268102 -35.789774 -22.260881 0.424319 3.746510 -22.348320 0.109126 0.000000 0.000000 0.000000 22.061287 -4.269524 -3.176907 63.406672 10.622690 -2.541628 23.170407 34.500682 9.290249 0.000000 0.000000 0.000000 
0.009784 0.947692 -0.004775 -7.848498 2.419652 4.468791 9.736988 -0.300380 -2.557501 -5.504097 0.534409 -1.704155 17.981077 31.033507 16.072322 0.000000 0.000000 0.000000 1.134169 1.366441 -12.654807 4.424266 -0.492558 3.044783 1.581388 -2.931590 15.898318 0.000000 0.000000 0.000000 -0.373600 -0.763309 17.149644 -8.030009 2.538739 -23.422441 -9.981008 0.209381 23.758451 4.793707 -1.468875 -19.918599 0.000000 0.000000 0.000000 -12.620047 -13.737743 5.457093 -34.935214 -22.609821 0.426922 4.278254 -21.762514 0.021817 0.000000 0.000000 0.000000 22.232657 -4.054634 -3.257445 63.251218 10.039919 -2.863550 24.007111 34.114680 9.348718 0.000000 0.000000 0.000000 
0.010126 0.947990 -0.005372 -8.060069 2.251316 4.450358 10.038594 -0.298822 -2.706086 -5.630996 0.553275 -1.340123 18.012485 31.098619 15.948281 0.000000 0.000000 0.000000 1.266690 1.413450 -12.969094 4.512881 -0.502662 3.135735 1.687655 -2.905739 16.299771 0.000000 0.000000 0.000000 -0.625999 -0.747001 17.783897 -7.847742 2.463379 -23.985057 -10.039189 0.040898 24.109848 4.845011 -1.574319 -19.756989 0.000000 0.000000 0.000000 -12.404577 -13.993393 5.632755 -34.742356 -22.822849 0.426992 4.718510 -21.429923 -0.052004 0.000000 0.000000 0.000000 22.515132 -4.158716 -3.433832 63.061796 9.565052 -3.161234 24.589293 33.871170 9.425561 0.000000 0.000000 0.000000 
0.010474 0.948298 -0.006010 -8.202803 2.206701 4.513412 10.424043 -0.302294 -2.808139 -6.014744 0.589742 -1.256326 18.212327 31.331329 16.083915 0.000000 0.000000 0.000000 1.242929 1.452312 -13.340376 4.443891 -0.492122 3.038968 1.986915 -2.546082 16.782004 0.000000 0.000000 0.000000 -0.715595 -0.746869 18.133137 -7.830957 2.449062 -24.140653 -9.967099 -0.409648 24.260865 4.562436 -1.584264 -18.850595 0.000000 0.000000 0.000000 -12.448251 -13.815558 5.657460 -34.427495 -23.068102 0.424011 5.152353 -21.393025 -0.114338 0.000000 0.000000 0.000000 22.836888 -4.153810 -3.618275 62.684261 9.099276 -3.425905 24.672988 33.517468 9.270305 0.000000 0.000000 0.000000 
